<?xml version="1.0" encoding="utf-8"?>
<!-- Generator: Adobe Illustrator 25.4.1, SVG Export Plug-In . SVG Version: 6.00 Build 0)  -->
<svg version="1.1" id="Layer_1" xmlns="http://www.w3.org/2000/svg" xmlns:xlink="http://www.w3.org/1999/xlink" x="0px" y="0px"
	 viewBox="0 0 595.28 841.89" style="enable-background:new 0 0 595.28 841.89;" xml:space="preserve">
<style type="text/css">
	.st0{fill:none;}
	.st1{font-family:'Optima-Bld';}
	.st2{font-size:10px;}
	.st3{font-family:'Optima-Rmn';}
	.st4{font-size:9px;}
	.st5{fill:none;stroke:#000000;stroke-width:0.75;stroke-miterlimit:10;}
</style>
<polyline class="st0" points="527.34,735.3 527.34,108.52 81.99,108.52 81.99,735.3 "/>
<polyline class="st0" points="527.18,735.38 527.18,108.66 82.28,108.66 82.28,735.38 "/>
<text transform="matrix(1 0 0 1 385.8044 114.9916)" class="st1 st2">Female: frontal section</text>
<text transform="matrix(1 0 0 1 395.9666 133.3705)" class="st3 st4">Parietal peritoneum</text>
<text transform="matrix(1 0 0 1 397.4343 145.9344)" class="st3 st4">Fundus of bladder</text>
<text transform="matrix(1 0 0 1 397.4343 157.7157)" class="st3 st4">Interureteric crest</text>
<text transform="matrix(1 0 0 1 397.4343 169.4964)" class="st3 st4">Left ureteric orifice</text>
<text transform="matrix(1 0 0 1 397.4343 193.0584)" class="st3 st4">Neck of bladder</text>
<text transform="matrix(1 0 0 1 397.4343 204.8397)" class="st3 st4">Paravesical endopelvic fascia</text>
<text transform="matrix(1 0 0 1 397.4343 214.0916)" class="st3 st4">and vesical venous plexus</text>
<text transform="matrix(1 0 0 1 397.4343 225.8636)" class="st3 st4">Vesical fascia</text>
<text transform="matrix(1 0 0 1 395.283 237.6444)" class="st3 st4">Tendinous arch of levator ani muscle</text>
<text transform="matrix(1 0 0 1 390.4324 249.4256)" class="st3 st4">Obturator internus muscle</text>
<text transform="matrix(1 0 0 1 386.1208 261.2064)" class="st3 st4">Levator ani muscle</text>
<text transform="matrix(1 0 0 1 371.0369 280.7723)" class="st3 st4">Tendinous arch of pelvic fascia</text>
<text transform="matrix(1 0 0 1 359.1843 304.3348)" class="st3 st4">Urethra</text>
<text transform="matrix(1 0 0 1 352.8025 315.1165)" class="st3 st4">Sphincter urethrae muscle</text>
<text transform="matrix(1 0 0 1 335.3972 336.8333)" class="st3 st4">Inferior pubic ramus</text>
<text transform="matrix(1 0 0 1 329.8621 347.9217)" class="st3 st4">Crus of clitoris and ischiocavernosus muscle</text>
<text transform="matrix(1 0 0 1 323.8044 358.7035)" class="st3 st4">Bulb of vestibule and bulbospongiosus muscle</text>
<text transform="matrix(1 0 0 1 313.8064 369.4857)" class="st3 st4">Deep perineal (investing or Gallaudet’s) fascia</text>
<text transform="matrix(1 0 0 1 310.9705 380.2674)" class="st3 st4">Superficial perineal (Colles’) fascia</text>
<text transform="matrix(1 0 0 1 360.8044 401.1795)" class="st1 st2">Male: frontal section</text>
<text transform="matrix(1 0 0 1 57.3049 342.2264)" class="st3 st4">Round</text>
<text transform="matrix(1 0 0 1 57.3049 351.4784)" class="st3 st4">ligament</text>
<text transform="matrix(1 0 0 1 57.3049 360.7303)" class="st3 st4">of uterus</text>
<text transform="matrix(1 0 0 1 58.0969 390.5204)" class="st3 st4">Vagina</text>
<text transform="matrix(1 0 0 1 340.4626 325.9632)" class="st3 st4">Perineal membrane</text>
<line class="st5" x1="230.47" y1="290.99" x2="233.85" y2="283.13"/>
<line class="st5" x1="253.95" y1="340.74" x2="248.12" y2="344.48"/>
<line class="st5" x1="333.63" y1="333.94" x2="278.89" y2="327.78"/>
<line class="st5" x1="85.55" y1="388.26" x2="194.3" y2="361.26"/>
<line class="st5" x1="92.53" y1="358.71" x2="139.03" y2="351.51"/>
<polyline class="st5" points="223.53,334.4 239.8,336.51 323.33,354.71 "/>
<line class="st5" x1="231.45" y1="348.01" x2="239.8" y2="336.51"/>
<line class="st5" x1="240.8" y1="341.94" x2="312.05" y2="366.51"/>
<line class="st5" x1="241.3" y1="349.01" x2="309.8" y2="376.96"/>
<polyline class="st5" points="255.05,337.26 264.8,334.51 328.05,345.51 "/>
<line class="st5" x1="259.05" y1="328.26" x2="264.8" y2="334.51"/>
<line class="st5" x1="216.25" y1="323.36" x2="339.55" y2="322.76"/>
<line class="st5" x1="170.69" y1="307.07" x2="351.8" y2="312.26"/>
<line class="st5" x1="199.81" y1="303.07" x2="357.55" y2="300.51"/>
<polyline class="st5" points="158.14,287.15 223.14,283.08 369.8,278.51 "/>
<line class="st5" x1="294.55" y1="257.76" x2="384.8" y2="258.41"/>
<line class="st5" x1="321.19" y1="252.08" x2="388.55" y2="246.71"/>
<line class="st5" x1="310.9" y1="246.28" x2="394.3" y2="234.26"/>
<line class="st5" x1="276.3" y1="241.76" x2="396.3" y2="223.71"/>
<polyline class="st5" points="294.55,234.01 313.8,224.51 396.3,202.01 "/>
<line class="st5" x1="298.05" y1="220.26" x2="313.8" y2="224.51"/>
<line class="st5" x1="396.3" y1="178.26" x2="198.55" y2="230.76"/>
<line class="st5" x1="244.55" y1="212.76" x2="396.05" y2="166.76"/>
<line class="st5" x1="395.5" y1="154.36" x2="201.55" y2="220.01"/>
<line class="st5" x1="200.69" y1="189.51" x2="396.05" y2="143.51"/>
<line class="st5" x1="394.8" y1="130.76" x2="263.55" y2="127.26"/>
<g>
	<text transform="matrix(1 0 0 1 397.4343 181.2777)" class="st3 st4">Trigone of bladder</text>
	<line class="st5" x1="193.3" y1="237.51" x2="395.96" y2="190.01"/>
	<path d="M193.3,238.38c0,0,1.38,8.58,5.89,8.58h9.23c5.51,0,7.66,4.95,7.76,5.94c-0.11-0.99-1.94-8.33-7.79-8.33h-9.31
		c-4.65,0-5.77-7.82-5.77-7.82s-0.81,7.82-5.91,7.82c-8.91,0-6.46-0.01-9.4,0c-5.33,0.02-7.79,7.01-7.93,8.33
		c0.12-1.15,3.04-5.94,7.9-5.94h9.31C191.99,246.96,193.3,238.38,193.3,238.38"/>
</g>
<path d="M200,303.13c0,0-3.2-0.81-3.2-3.05v-28.39c0-8.39-4.61-8.93-5.36-9.01c0.75,0.08,6.72-0.09,6.72,9.03v28.46
	c0,2.39,2.65,2.91,2.65,2.91s-2.65,0.66-2.65,3.04v30.57c0,11-4.75,9.19-6.72,9.39c0.75-0.08,5.36,0.19,5.36-9.37v-30.5
	C196.8,304.03,200,303.13,200,303.13"/>
</svg>
